<svg id="Layer_1" enable-background="new 0 0 512 512" height="20" viewBox="0 0 512 512" width="20" xmlns="http://www.w3.org/2000/svg"><g clip-rule="evenodd" fill-rule="evenodd"><g><g><path d="m291.285 429.723v8.149c0 9.783-8.005 17.788-17.787 17.788h-34.617c-9.783 0-17.787-8.004-17.787-17.788v-8.149h-195.094c-5.508 0-10-4.492-10-10v-325.29c0-5.508 4.492-10 10-10h460c5.508 0 10 4.492 10 10v325.29c0 5.508-4.492 10-10 10z" fill="#837683"/><path d="m291.285 429.723v8.149c0 9.783-8.005 17.788-17.787 17.788h-34.617c-9.783 0-17.787-8.004-17.787-17.788v-2.213h32.404c9.783 0 17.787-8.005 17.787-17.788v-8.149h194.715c5.508 0 10-4.492 10-10v-315.288h10c5.508 0 10 4.492 10 10v325.29c0 5.508-4.492 10-10 10h-194.715zm-70.191 0c-2.827-3.152-4.553-7.31-4.553-11.851v-8.149h-200.541v10.001c0 5.508 4.492 10 10 10h195.094z" fill="#685e68"/><path d="m71.168 56.341c90.774.612 116.339 9.74 184.832 28.093 68.493-18.353 94.058-27.48 184.832-28.093 2.766-.02 5.153.955 7.116 2.904s2.954 4.33 2.954 7.096v314.103c0 5.47-4.423 9.941-9.893 9.999-66.477.708-132.95 8.804-180.283 34.194-3.042 1.632-6.41 1.632-9.453 0-47.333-25.39-113.807-33.485-180.283-34.194-5.47-.058-9.893-4.529-9.893-9.999v-314.103c0-2.766.991-5.147 2.954-7.096 1.964-1.949 4.351-2.924 7.117-2.904z" fill="#d1d1d6"/><path d="m450.903 360.443v20.001c0 5.47-4.423 9.941-9.893 9.999-66.477.708-132.95 8.804-180.283 34.194-3.042 1.632-6.41 1.632-9.453 0-47.333-25.39-113.807-33.485-180.283-34.194-5.47-.058-9.893-4.529-9.893-9.999v-20.001c0 5.47 4.423 9.941 9.893 9.999 66.476.708 132.95 8.804 180.283 34.194 3.042 1.632 6.411 1.632 9.453 0 47.333-25.39 113.806-33.485 180.283-34.194 5.469-.059 9.893-4.529 9.893-9.999z" fill="#b1b1b5"/><path d="m256 84.434c68.493-18.353 94.058-27.48 184.832-28.093 2.766-.02 5.153.955 7.116 2.904s2.954 4.33 2.954 7.096v314.103c0 5.47-4.423 9.941-9.893 9.999-66.477.708-132.95 8.804-180.283 34.194-1.521.816-3.124 1.224-4.726 1.224z" fill="#eceff1"/><path d="m450.903 360.443v20.001c0 5.47-4.423 9.941-9.893 9.999-66.477.708-132.95 8.804-180.283 34.194-1.521.816-3.124 1.224-4.726 1.224v-20.001c1.603 0 3.205-.408 4.726-1.224 47.333-25.39 113.806-33.485 180.283-34.194 5.469-.059 9.893-4.529 9.893-9.999z" fill="#d1d1d6"/></g><g><path d="m161.656 161.465 64.901 37.47c1.976 1.141 3.107 3.1 3.107 5.382v74.941c0 2.282-1.131 4.241-3.107 5.382l-64.901 37.47c-1.976 1.141-4.238 1.141-6.214 0l-64.901-37.47c-1.976-1.141-3.107-3.1-3.107-5.382v-74.941c0-2.282 1.131-4.241 3.107-5.382l64.901-37.47c1.976-1.141 4.238-1.141 6.214 0z" fill="#f2d1a5"/><path d="m161.656 161.465 64.901 37.47c.988.57 1.765 1.345 2.295 2.263l-70.302 40.589-70.302-40.589c.53-.918 1.307-1.693 2.295-2.263l64.901-37.47c1.974-1.141 4.236-1.141 6.212 0z" fill="#e3a76f"/><path d="m228.851 201.198c.529.918.813 1.978.813 3.118v74.941c0 2.282-1.131 4.241-3.107 5.382l-64.901 37.47c-.988.57-2.048.855-3.107.855v-81.178z" fill="#ecba78"/><path d="m112.68 215.304 20.623 11.908 71.115-41.059-20.623-11.906z" fill="#c48958"/><path d="m128.643 256.856-12.855-7.422c-1.976-1.141-3.107-3.1-3.107-5.382v-28.748l20.623 11.907v26.954c0 1.141-.566 2.121-1.553 2.691-.989.571-2.12.571-3.108 0z" fill="#e3a76f"/></g><path d="m296.569 294.856h21.809c3.958 0 7.197 3.238 7.197 7.197v21.809c0 3.958-3.238 7.197-7.197 7.197h-21.809c-3.958 0-7.197-3.238-7.197-7.197v-21.809c0-3.959 3.239-7.197 7.197-7.197z" fill="#fe646f"/><path d="m308.378 294.856h10c3.958 0 7.197 3.238 7.197 7.197v21.809c0 3.958-3.238 7.197-7.197 7.197h-10c3.958 0 7.197-3.238 7.197-7.197v-21.809c-.001-3.959-3.239-7.197-7.197-7.197z" fill="#fd4755"/><path d="m296.569 223.686h21.809c3.958 0 7.197 3.239 7.197 7.197v21.809c0 3.958-3.238 7.197-7.197 7.197h-21.809c-3.958 0-7.197-3.239-7.197-7.197v-21.809c0-3.958 3.239-7.197 7.197-7.197z" fill="#ffe177"/><path d="m308.378 223.686h10c3.958 0 7.197 3.238 7.197 7.197v21.809c0 3.958-3.238 7.197-7.197 7.197h-10c3.958 0 7.197-3.238 7.197-7.197v-21.809c-.001-3.958-3.239-7.197-7.197-7.197z" fill="#ffd064"/><path d="m296.569 152.516h21.809c3.958 0 7.197 3.238 7.197 7.197v21.809c0 3.958-3.238 7.197-7.197 7.197h-21.809c-3.958 0-7.197-3.238-7.197-7.197v-21.809c0-3.958 3.239-7.197 7.197-7.197z" fill="#6cf5c2"/><path d="m308.378 152.516h10c3.958 0 7.197 3.238 7.197 7.197v21.809c0 3.958-3.238 7.197-7.197 7.197h-10c3.958 0 7.197-3.238 7.197-7.197v-21.809c-.001-3.958-3.239-7.197-7.197-7.197z" fill="#00e499"/></g><path d="m297.381 302.869h20.197v20.207h-20.197zm-.81 36.21h21.807c8.383 0 15.203-6.82 15.203-15.203v-21.807c0-8.378-6.82-15.199-15.203-15.199h-21.807c-8.383 0-15.194 6.82-15.194 15.199v21.807c0 8.383 6.811 15.203 15.194 15.203zm.81-107.378h20.197v20.202h-20.197zm-.81 36.2h21.807c8.383 0 15.203-6.816 15.203-15.194v-21.812c0-8.378-6.82-15.194-15.203-15.194h-21.807c-8.383 0-15.194 6.815-15.194 15.194v21.812c0 8.379 6.811 15.194 15.194 15.194zm.81-107.368h20.197v20.202h-20.197zm-.81 36.2h21.807c8.383 0 15.203-6.816 15.203-15.194v-21.812c0-8.378-6.82-15.194-15.203-15.194h-21.807c-8.383 0-15.194 6.816-15.194 15.194v21.812c0 8.379 6.811 15.194 15.194 15.194zm52.199 103.302c0-4.41 3.582-7.992 8.002-7.992h60.756c4.42 0 8.002 3.582 8.002 7.992 0 4.425-3.582 8.002-8.002 8.002h-60.756c-4.42 0-8.002-3.577-8.002-8.002zm0 25.874c0-4.424 3.582-8.002 8.002-8.002h60.756c4.42 0 8.002 3.577 8.002 8.002 0 4.41-3.582 7.997-8.002 7.997h-60.756c-4.42 0-8.002-3.587-8.002-7.997zm0-71.177c0-4.42 3.582-7.997 8.002-7.997h60.756c4.42 0 8.002 3.577 8.002 7.997s-3.582 8.002-8.002 8.002h-60.756c-4.42-.001-8.002-3.583-8.002-8.002zm0-25.86c0-4.42 3.582-8.002 8.002-8.002h60.756c4.42 0 8.002 3.582 8.002 8.002s-3.582 8.002-8.002 8.002h-60.756c-4.42 0-8.002-3.582-8.002-8.002zm0-71.168c0-4.42 3.582-8.002 8.002-8.002h60.756c4.42 0 8.002 3.582 8.002 8.002 0 4.415-3.582 7.997-8.002 7.997h-60.756c-4.42 0-8.002-3.582-8.002-7.997zm0 25.859c0-4.42 3.582-8.002 8.002-8.002h60.756c4.42 0 8.002 3.582 8.002 8.002s-3.582 8.002-8.002 8.002h-60.756c-4.42 0-8.002-3.582-8.002-8.002zm-182.222 126.493v-63.637l55.122-31.819v63.642zm-71.107-95.455 9.24 5.338v27.719c0 2.857 1.53 5.497 3.996 6.928l20.635 11.904c1.229.716 2.617 1.073 3.996 1.073 1.384 0 2.763-.358 4.001-1.073 2.471-1.426 4.001-4.071 4.001-6.929v-18.479l9.24 5.338v63.637l-55.108-31.814v-63.642zm63.11-45.676 9.249 5.338-55.122 31.818-9.24-5.337zm-37.871 60.253v13.857l4.631 2.669v-13.857zm8.001-13.857 4.627 2.669 55.113-31.819-4.622-2.674zm29.87 17.246 55.118-31.823-9.249-5.338-55.113 31.823zm75.117-38.752-71.121-41.053c-2.467-1.431-5.516-1.431-7.997 0l-71.112 41.053c-2.48 1.431-4.001 4.071-4.001 6.929v82.116c0 2.857 1.521 5.498 4.001 6.929l71.112 41.058c1.238.711 2.617 1.068 4.001 1.068 1.379 0 2.768-.358 3.996-1.068l71.121-41.058c2.471-1.431 4.001-4.071 4.001-6.929v-82.116c0-2.858-1.53-5.498-4.001-6.929zm254.332 227.921v-329.288h-29.089v297.96c0 4.42-3.591 8.002-8.002 8.002-86.729 0-149.18 11.711-190.911 35.801-1.229.715-2.608 1.068-4.001 1.068-1.379 0-2.758-.353-3.996-1.068-41.731-24.091-104.172-35.802-190.901-35.802-4.42 0-8.002-3.582-8.002-8.002v-297.959h-29.098v329.289h197.1c4.42 0 7.997 3.582 7.997 8.002v8.148c0 5.399 4.392 9.79 9.781 9.79h34.619c5.398 0 9.79-4.391 9.79-9.79v-8.148c0-4.42 3.582-8.002 8.002-8.002h196.711zm-418.903-357.393v318.096c77.842.659 136.631 11.019 178.904 31.56v-323.415c-3.624-.979-7.122-1.93-10.529-2.848-57.542-15.589-84.753-22.96-168.375-23.393zm205.432 23.393c-3.389.918-6.91 1.869-10.529 2.848v323.424c42.282-20.55 101.061-30.91 178.909-31.569v-318.096c-83.619.433-110.83 7.804-168.38 23.393zm221.472-11.287h-37.09v-20.127c0-4.42-3.591-7.997-8.002-7.997-92.081 0-121.649 8.006-180.561 23.967-4.58 1.238-9.348 2.532-14.351 3.874-4.989-1.342-9.757-2.636-14.337-3.874-58.911-15.96-88.48-23.967-180.56-23.967-4.42 0-8.002 3.577-8.002 7.997v20.127h-37.1c-4.41 0-7.997 3.582-7.997 8.002v345.287c0 4.42 3.587 8.002 7.997 8.002h197.101v.146c0 14.219 11.56 25.789 25.779 25.789h34.619c14.219 0 25.789-11.57 25.789-25.789v-.146h196.715c4.42 0 7.997-3.582 7.997-8.002v-345.287c.001-4.42-3.577-8.002-7.997-8.002z"/></g></svg>