<svg xmlns="http://www.w3.org/2000/svg" version="1.1" xmlns:xlink="http://www.w3.org/1999/xlink" width="20" height="20" x="0" y="0" viewBox="0 0 24 24" style="enable-background:new 0 0 512 512" xml:space="preserve" class=""><g><rect width="22" height="22" x="1" y="1" fill="#dae2ff" rx="6" opacity="1" data-original="#daffe2" class=""></rect><g fill="#098d26"><path d="M6.5 10.625a.458.458 0 0 1-.458-.458V5.125H4.667a.458.458 0 1 1 0-.917h1.375c.505 0 .916.411.916.917v5.042a.458.458 0 0 1-.458.458z" fill="#0c098d" opacity="1" data-original="#098d26" class=""></path><path d="M8.333 10.625H4.667a.458.458 0 1 1 0-.917h3.666a.458.458 0 1 1 0 .917zm5.5 0h-3.208a.918.918 0 0 1-.917-.917V7.875c0-.506.412-.917.917-.917h2.75V5.125h-3.208a.458.458 0 1 1 0-.917h3.208c.506 0 .917.411.917.917v1.833a.918.918 0 0 1-.917.917h-2.75v1.833h3.208a.458.458 0 1 1 0 .917zm5.042 0h-3.208a.458.458 0 1 1 0-.917h3.208V5.125h-3.208a.458.458 0 1 1 0-.917h3.208c.506 0 .917.411.917.917v4.583a.918.918 0 0 1-.917.917z" fill="#0c098d" opacity="1" data-original="#098d26" class=""></path><path d="M19.333 7.875h-3.666a.458.458 0 1 1 0-.917h3.666a.458.458 0 1 1 0 .917zM7.875 19.792h-2.75a.918.918 0 0 1-.917-.917v-.917c0-.505.412-.916.917-.916h2.75v-.917H4.667a.458.458 0 1 1 0-.917h3.208c.505 0 .917.411.917.917v2.75a.918.918 0 0 1-.917.917zm-2.75-1.834v.917h2.75v-.917zm8.25 1.834h-2.75a.918.918 0 0 1-.917-.917v-5.958a.458.458 0 1 1 .917 0v2.291h2.75c.506 0 .917.411.917.917v2.75a.918.918 0 0 1-.917.917zm-2.75-3.667v2.75h2.75v-2.75zm8.708 3.667h-3.208a.917.917 0 0 1-.917-.917v-2.75c0-.506.411-.917.917-.917h3.208a.458.458 0 1 1 0 .917h-3.208v2.75h3.208a.458.458 0 1 1 0 .917z" fill="#0c098d" opacity="1" data-original="#098d26" class=""></path></g></g></svg>