<svg xmlns="http://www.w3.org/2000/svg" version="1.1" xmlns:xlink="http://www.w3.org/1999/xlink" width="20" height="20" x="0" y="0" viewBox="0 0 504.077 504" style="enable-background:new 0 0 512 512" xml:space="preserve"><g transform="matrix(6.123233995736766e-17,1,1,-6.123233995736766e-17,0.16764977574345608,-0.16764977574342765)"><path fill="#fec108" d="M495.516 25.469a16.962 16.962 0 0 0-5.961-13.094 13.741 13.741 0 0 0-4.278-2.516c-.336-.168-.84-.336-1.261-.504a19.884 19.884 0 0 0-2.434-.585 15.315 15.315 0 0 0-2.77-.254h-25.347l-57.242-.082a10.456 10.456 0 0 0-5.875 3.355L207.957 194.18a156.018 156.018 0 0 0-20.398-4.784 151.493 151.493 0 0 0-37.434-1.512c-56.684 4.508-106.266 39.89-128.96 92.023C-1.532 332.043 6.358 392.441 41.683 437c3.523 4.367 7.132 8.477 10.91 12.34 49.824 50.652 127.824 60.656 188.82 24.222 60.996-36.433 89.164-109.859 68.188-177.738l18.128-18.129a5.363 5.363 0 0 0 1.512-4.113l-4.113-44.656a5.152 5.152 0 0 1 1.176-3.692 5.076 5.076 0 0 1 4.449-1.93l20.144 1.848 20.73 1.93a5.247 5.247 0 0 0 4.102-1.523 5.242 5.242 0 0 0 1.524-4.102l-3.777-40.875a5.158 5.158 0 0 1 1.171-3.695 4.974 4.974 0 0 1 4.45-1.93l20.144 1.848 20.73 1.93a5.247 5.247 0 0 0 4.106-1.52 5.247 5.247 0 0 0 1.52-4.106l-3.692-41.043a5.021 5.021 0 0 1 1.176-3.691 4.954 4.954 0 0 1 4.363-1.848l24.09 2.184 20.817 1.844c1.5.132 2.98-.422 4.027-1.508l16.953-17.461a8.538 8.538 0 0 0 2.352-5.875zM147.94 413.918c-16.078 15.945-42 15.945-58.082 0a4.436 4.436 0 0 1-.84-1.008 17.782 17.782 0 0 1-2.601-3.02l-.082-.085a19.508 19.508 0 0 1-2.184-3.188 20.103 20.103 0 0 1-1.93-3.441 33.278 33.278 0 0 1-1.761-3.946 19.995 19.995 0 0 1-1.008-3.187 40.953 40.953 0 0 1 10.426-40.188 40.946 40.946 0 0 1 40.187-10.425c1.09.246 2.157.582 3.188 1.008 1.351.5 2.672 1.09 3.945 1.761a20.102 20.102 0 0 1 3.442 1.93 19.54 19.54 0 0 1 3.191 2.184l.082.082a17.785 17.785 0 0 1 3.023 2.601c.375.23.715.512 1.004.84 16.036 16.043 16.036 42.039 0 58.082zm0 0" opacity="1" data-original="#fec108"></path><path fill="#ffdc00" d="M470.336 25.469a16.962 16.962 0 0 0-5.961-13.094 13.715 13.715 0 0 0-4.281-2.516c-.336-.168-.836-.336-1.258-.504a19.884 19.884 0 0 0-2.434-.585 15.315 15.315 0 0 0-2.77-.254h-.167l-57.242-.082a10.456 10.456 0 0 0-5.875 3.355L207.957 194.18a156.018 156.018 0 0 0-20.398-4.784l-4.782 4.785a154.909 154.909 0 0 0-32.652-6.297c-56.684 4.508-106.266 39.89-128.96 92.023C-1.532 332.043 6.358 392.441 41.683 437c3.523 4.367 7.132 8.477 10.91 12.34a153.257 153.257 0 0 0 97.617 45.406 153.934 153.934 0 0 0 114.762-67.305 153.945 153.945 0 0 0 19.449-131.617l18.129-18.129a5.363 5.363 0 0 0 1.512-4.113l-4.114-44.656a5.21 5.21 0 0 1 1.504-4.117 5.21 5.21 0 0 1 4.117-1.504l20.735 1.93 20.144 1.847a5.286 5.286 0 0 0 4.09-1.535 5.27 5.27 0 0 0 1.531-4.09l-3.777-40.875a5.195 5.195 0 0 1 1.508-4.117 5.195 5.195 0 0 1 4.117-1.508l20.73 1.93 20.145 1.847a5.278 5.278 0 0 0 5.625-5.625l-3.691-41.043a5.121 5.121 0 0 1 5.54-5.54l20.815 1.849 24.086 2.18a4.988 4.988 0 0 0 4.031-1.508l.336-.336 16.617-17.125a8.538 8.538 0 0 0 2.352-5.875zM147.94 413.918a40.929 40.929 0 0 1-41.629 9.988c-14.187 4.617-2.265 1.262-13.515-9.988a4.436 4.436 0 0 1-.84-1.008 17.782 17.782 0 0 1-2.602-3.02l-.082-.085a19.508 19.508 0 0 1-2.183-3.188 20.103 20.103 0 0 1-1.93-3.441 33.278 33.278 0 0 1-1.762-3.946 19.995 19.995 0 0 1-1.007-3.187 40.864 40.864 0 0 1 10.406-40.207c10.914-10.91-1.762-14.352 12.086-10.406.46.101.91.242 1.344.418a40.494 40.494 0 0 1 23.84-.418c1.09.246 2.156.582 3.187 1.007 1.351.5 2.672 1.09 3.945 1.762a20.102 20.102 0 0 1 3.442 1.93 19.54 19.54 0 0 1 3.191 2.183l.082.083a17.785 17.785 0 0 1 3.023 2.601c.375.23.715.512 1.004.84 16.036 16.043 16.036 42.039 0 58.082zm0 0" opacity="1" data-original="#ffdc00"></path><path d="M162.383 503.703c-3.016 0-6.028-.086-9.051-.254a161.03 161.03 0 0 1-118.195-61.246c-43.645-55.062-46.938-131.941-8.16-190.535 38.773-58.594 110.824-85.613 178.566-66.965L384.387 5.86A18.905 18.905 0 0 1 395.266.105c.351-.046.863.102 1.046-.066l82.372.074a25.801 25.801 0 0 1 17.91 7.414 25.005 25.005 0 0 1 7.336 17.989l.148 80.207a16.776 16.776 0 0 1-4.738 11.722l-.008.008-16.969 17.457a13.41 13.41 0 0 1-10.789 4l-40.96-3.683 3.34 37.148a13.542 13.542 0 0 1-3.911 10.785 13.536 13.536 0 0 1-10.79 3.903l-37.05-3.391 3.383 37.043c.363 4-1.066 7.957-3.91 10.797a13.509 13.509 0 0 1-10.801 3.898l-37.031-3.383 3.73 40.782a13.489 13.489 0 0 1-3.906 10.8l-14.605 14.61a162.417 162.417 0 0 1-27.442 141.55 162.417 162.417 0 0 1-129.238 63.934zm-.215-308.09c-62.89.11-118.61 40.57-138.176 100.34-19.57 59.766 1.43 125.344 52.074 162.629 50.645 37.285 119.5 37.86 170.758 1.418 51.258-36.437 73.344-101.656 54.77-161.742a8.37 8.37 0 0 1 2.086-8.403l17.039-17.039-3.946-43.156c-.367-4 1.063-7.957 3.907-10.797a13.52 13.52 0 0 1 10.793-3.91l37.043 3.39-3.391-37.042a13.533 13.533 0 0 1 14.703-14.7l37.05 3.387-3.339-37.14a13.547 13.547 0 0 1 3.91-10.782 13.547 13.547 0 0 1 10.781-3.91l43.223 3.89 15.824-16.28.012-.028-.144-80.281a8.384 8.384 0 0 0-2.395-6.043 8.396 8.396 0 0 0-5.996-2.52h-.043l-81.41-.07c-.371.281-.723.586-1.055.91L213.902 200.082c-2.199 2.2-5.433 3-8.402 2.086a147.364 147.364 0 0 0-43.332-6.555zm0 0" fill="#000000" opacity="1" data-original="#000000"></path><path d="M118.879 434.32c-23.586-.015-43.875-16.687-48.465-39.824-4.586-23.137 7.809-46.293 29.602-55.305 21.796-9.015 46.925-1.379 60.02 18.239 13.093 19.617 10.507 45.754-6.177 62.425a49.317 49.317 0 0 1-34.98 14.465zm.004-82.105c-15.582.008-28.988 11.023-32.02 26.308-3.031 15.286 5.157 30.582 19.555 36.54 14.398 5.957 31 .91 39.652-12.051 8.653-12.957 6.942-30.227-4.078-41.239a32.603 32.603 0 0 0-23.11-9.558zM242.313 226.281a8.392 8.392 0 0 1-7.754-5.183 8.388 8.388 0 0 1 1.816-9.145L367.063 81.266a8.398 8.398 0 0 1 8.156-2.274 8.398 8.398 0 0 1 5.988 5.988 8.4 8.4 0 0 1-2.277 8.157L248.246 223.82a8.382 8.382 0 0 1-5.934 2.461zM403.355 66.844a8.393 8.393 0 1 0-16.785 0 8.393 8.393 0 1 0 16.785 0zm0 0" fill="#000000" opacity="1" data-original="#000000"></path></g></svg>