<svg height="20" viewBox="0 0 32 32" width="20" xmlns="http://www.w3.org/2000/svg"><g id="_x31_3"><path d="m24 27c1.654 0 3-1.346 3-3s-1.346-3-3-3-3 1.346-3 3 1.346 3 3 3zm0-4c.552 0 1 .448 1 1s-.448 1-1 1-1-.448-1-1 .448-1 1-1z"/><path d="m21 16h8c.553 0 1-.447 1-1v-12c0-.553-.447-1-1-1h-8c-.553 0-1 .447-1 1v8h-2c-.553 0-1 .447-1 1v9h-2v-13c0-.553-.448-1-1-1h-2v-4c0-.553-.448-1-1-1h-8c-.552 0-1 .447-1 1v12c0 .553.448 1 1 1h8c.552 0 1-.447 1-1v-6h1v12h-7c-.197 0-.391.059-.555.168l-3 2c-.278.186-.445.498-.445.832s.167.646.445.832l3 2c.164.109.358.168.555.168h2.764l1.789.895c.281.141.613.141.895 0l1.552-.777 1.553.776c.281.141.613.141.895 0l1.788-.894h1.572c1.064 1.842 3.036 3 5.191 3 3.309 0 6-2.691 6-6s-2.691-6-6-6c-2.038 0-3.902 1.044-5 2.714v-7.714h1v2c.001.553.448 1 1.001 1zm-17-12h6v1h-6zm6 10h-6v-7h6zm10.338 8.401c.639-1.459 2.076-2.401 3.662-2.401 2.206 0 4 1.794 4 4s-1.794 4-4 4c-1.586 0-3.023-.942-3.662-2.401-.159-.364-.519-.599-.916-.599h-2.422c-.155 0-.309.036-.447.105l-1.553.777-1.553-.776c-.281-.141-.613-.141-.895 0l-1.552.776-1.553-.776c-.138-.07-.292-.106-.447-.106h-2.697l-1.5-1 1.5-1h13.119c.397 0 .757-.235.916-.599zm7.662-8.401h-6v-7h6zm-6-10h6v1h-6z"/></g></svg>