<svg width="20" height="20" fill="none" viewBox="0 0 24 24" xmlns="http://www.w3.org/2000/svg"><rect fill="#cbf6ff" height="22" rx="6" width="22" x="1" y="1"/><path d="m4.667 10.167v-1.834h1.833a1.835 1.835 0 0 0 1.833-1.833v-1.833h1.834v5.5z" fill="#adf0ff"/><path d="m4.667 8.333 3.666-3.666v1.833c0 1.01-.822 1.833-1.833 1.833z" fill="#4fdfff"/><path d="m10.167 10.167h-5.5v4.583h5.5z" fill="#adf0ff"/><path d="m19.333 10.167h-9.166v4.583h9.166zm-9.166 0v-5.5h7.333c1.011 0 1.833.822 1.833 1.833v3.667zm-3.667 9.166a1.835 1.835 0 0 1 -1.833-1.833v-2.75h5.5v4.583zm3.667 0v-4.583h9.166v2.75c0 1.01-.822 1.833-1.833 1.833z" fill="#adf0ff"/><g fill="#0a68d7"><path d="m10.167 19.792a.458.458 0 0 1 -.459-.459v-14.666a.458.458 0 1 1 .917 0v14.666a.458.458 0 0 1 -.458.459z"/><path d="m19.333 10.625h-14.666a.458.458 0 1 1 0-.917h14.666a.458.458 0 1 1 0 .917zm0 4.583h-14.666a.458.458 0 1 1 0-.916h14.666a.458.458 0 1 1 0 .916z"/><path d="m17.5 19.792h-11a2.294 2.294 0 0 1 -2.292-2.292v-9.167a.46.46 0 0 1 .135-.324l3.666-3.666a.458.458 0 0 1 .324-.135h9.167a2.294 2.294 0 0 1 2.292 2.292v11a2.294 2.294 0 0 1 -2.292 2.292zm-12.375-11.269v8.977c0 .758.617 1.375 1.375 1.375h11c.758 0 1.375-.617 1.375-1.375v-11c0-.758-.617-1.375-1.375-1.375h-8.977z"/><path d="m6.5 8.792h-1.833a.458.458 0 1 1 0-.917h1.833c.758 0 1.375-.617 1.375-1.375v-1.833a.458.458 0 1 1 .917 0v1.833a2.294 2.294 0 0 1 -2.292 2.292z"/></g></svg>