<svg xmlns="http://www.w3.org/2000/svg" version="1.1" xmlns:xlink="http://www.w3.org/1999/xlink" width="20" height="20" x="0" y="0" viewBox="0 0 446.969 446.969" style="enable-background:new 0 0 512 512" xml:space="preserve"><g><path d="M430.266 23.857H16.699C7.487 23.857 0 31.354 0 40.555v365.86c0 5.654 2.841 10.637 7.155 13.663v2.632h5.989c1.149.252 2.332.401 3.555.401h413.575c1.22 0 2.401-.149 3.545-.401h.821v-.251c7.088-1.938 12.328-8.362 12.328-16.044V40.561c.001-9.207-7.489-16.704-16.702-16.704zM66.006 408.396H15.459c-.674-.416-1.148-1.132-1.148-1.98v-43.35h51.695v45.33zm0-59.645H14.311v-47.01h51.695v47.01zm0-61.319H14.311V237.8h51.695v49.632zm0-63.945H14.311V169.8h51.695v53.687zm0-68.001H14.311v-52.493h51.695v52.493zm120.489 252.91H80.318v-45.33h106.176v45.33zm0-59.645H80.318v-47.01h106.176v47.01zm0-61.319H80.318V237.8h106.176v49.632zm0-63.945H80.318V169.8h106.176v53.687zm0-68.001H80.318v-52.493h106.176v52.493zm0-66.81H80.318v-50.51h106.176v50.51zm121.695 319.72H200.812v-45.33H308.19v45.33zm0-59.645H200.812v-47.01H308.19v47.01zm0-61.319H200.812V237.8H308.19v49.632zm0-63.945H200.812V169.8H308.19v53.687zm0-68.001H200.812v-52.493H308.19v52.493zm0-66.81H200.812v-50.51H308.19v50.51zm124.466 317.74c0 .845-.477 1.56-1.148 1.98H322.503v-45.33h110.153v43.35zm0-57.665H322.503v-47.01h110.153v47.01zm0-61.319H322.503V237.8h110.153v49.632zm0-63.945H322.503V169.8h110.153v53.687zm0-68.001H322.503v-52.493h110.153v52.493zm0-66.81H322.503v-50.51h107.763a2.398 2.398 0 0 1 2.391 2.389v48.121zm-135.395 53.562H211.34v-29.883h85.917v29.883h.004zm0 67.519H211.34v-29.882h85.917v29.882h.004zm0 65.368H211.34v-29.883h85.917v29.883h.004zm0 64.718H211.34v-29.878h85.917v29.878h.004zm0 59.776H211.34v-29.888h85.917v29.888h.004z" fill="#11097d" opacity="1" data-original="#000000"></path></g></svg>